<svg width="210" height="190" viewBox="0 0 210 190" fill="none" xmlns="http://www.w3.org/2000/svg">
<g clip-path="url(#clip0_1_12)">
<path d="M130.477 110.409H53.556C50.9475 110.406 48.4467 109.365 46.6022 107.514C44.7578 105.663 43.7202 103.153 43.7173 100.535V9.87402C43.7202 7.25617 44.7578 4.74639 46.6022 2.8953C48.4467 1.0442 50.9475 0.00295711 53.556 0H125.118L140.315 12.1567V100.535C140.312 103.153 139.275 105.663 137.43 107.514C135.586 109.365 133.085 110.406 130.477 110.409Z" fill="#E6E6E6"/>
<path d="M53.556 2.84251C51.6984 2.84462 49.9175 3.58611 48.604 4.90431C47.2906 6.22252 46.5517 8.00979 46.5496 9.87401V100.535C46.5517 102.4 47.2906 104.187 48.604 105.505C49.9175 106.823 51.6984 107.565 53.556 107.567H130.477C132.334 107.565 134.115 106.823 135.429 105.505C136.742 104.187 137.481 102.4 137.483 100.535V13.5261L124.127 2.84251H53.556Z" fill="white"/>
<path d="M115.516 29.2044H80.4947C80.2795 29.2044 80.0665 29.1619 79.8677 29.0793C79.6689 28.9966 79.4883 28.8755 79.3361 28.7228C79.184 28.5701 79.0633 28.3889 78.981 28.1894C78.8986 27.9899 78.8563 27.7761 78.8563 27.5601C78.8563 27.3442 78.8986 27.1304 78.981 26.9309C79.0633 26.7314 79.184 26.5501 79.3361 26.3974C79.4883 26.2448 79.6689 26.1236 79.8677 26.041C80.0665 25.9584 80.2795 25.9158 80.4947 25.9158H115.516C115.731 25.9158 115.944 25.9584 116.143 26.041C116.341 26.1236 116.522 26.2448 116.674 26.3974C116.826 26.5501 116.947 26.7314 117.029 26.9309C117.112 27.1304 117.154 27.3442 117.154 27.5601C117.154 27.7761 117.112 27.9899 117.029 28.1894C116.947 28.3889 116.826 28.5701 116.674 28.7228C116.522 28.8755 116.341 28.9966 116.143 29.0793C115.944 29.1619 115.731 29.2044 115.516 29.2044Z" fill="#CCCCCC"/>
<path d="M122.274 34.7539H80.4947C80.0601 34.7539 79.6434 34.5807 79.3361 34.2723C79.0289 33.9639 78.8563 33.5457 78.8563 33.1096C78.8563 32.6735 79.0289 32.2553 79.3361 31.9469C79.6434 31.6386 80.0601 31.4653 80.4947 31.4653H122.274C122.709 31.4653 123.125 31.6386 123.433 31.9469C123.74 32.2553 123.912 32.6735 123.912 33.1096C123.912 33.5457 123.74 33.9639 123.433 34.2723C123.125 34.5807 122.709 34.7539 122.274 34.7539Z" fill="#CCCCCC"/>
<path d="M115.516 54.0743H80.4947C80.0601 54.0743 79.6434 53.901 79.3361 53.5927C79.0289 53.2843 78.8563 52.8661 78.8563 52.43C78.8563 51.9939 79.0289 51.5757 79.3361 51.2673C79.6434 50.9589 80.0601 50.7857 80.4947 50.7857H115.516C115.95 50.7857 116.367 50.9589 116.674 51.2673C116.981 51.5757 117.154 51.9939 117.154 52.43C117.154 52.8661 116.981 53.2843 116.674 53.5927C116.367 53.901 115.95 54.0743 115.516 54.0743Z" fill="#CCCCCC"/>
<path d="M122.274 59.6237H80.4947C80.0601 59.6237 79.6434 59.4505 79.3361 59.1421C79.0289 58.8338 78.8563 58.4155 78.8563 57.9794C78.8563 57.5433 79.0289 57.1251 79.3361 56.8167C79.6434 56.5084 80.0601 56.3351 80.4947 56.3351H122.274C122.709 56.3351 123.125 56.5084 123.433 56.8167C123.74 57.1251 123.912 57.5433 123.912 57.9794C123.912 58.4155 123.74 58.8338 123.433 59.1421C123.125 59.4505 122.709 59.6237 122.274 59.6237Z" fill="#CCCCCC"/>
<path d="M115.516 78.9441H80.4947C80.0601 78.9441 79.6434 78.7709 79.3361 78.4625C79.0289 78.1542 78.8563 77.7359 78.8563 77.2998C78.8563 76.8637 79.0289 76.4455 79.3361 76.1371C79.6434 75.8288 80.0601 75.6555 80.4947 75.6555H115.516C115.95 75.6555 116.367 75.8288 116.674 76.1371C116.981 76.4455 117.154 76.8637 117.154 77.2998C117.154 77.7359 116.981 78.1542 116.674 78.4625C116.367 78.7709 115.95 78.9441 115.516 78.9441Z" fill="#CCCCCC"/>
<path d="M122.274 84.4936H80.4947C80.0601 84.4936 79.6434 84.3204 79.3361 84.012C79.0289 83.7036 78.8563 83.2854 78.8563 82.8493C78.8563 82.4132 79.0289 81.995 79.3361 81.6866C79.6434 81.3783 80.0601 81.205 80.4947 81.205H122.274C122.709 81.205 123.125 81.3783 123.433 81.6866C123.74 81.995 123.912 82.4132 123.912 82.8493C123.912 83.2854 123.74 83.7036 123.433 84.012C123.125 84.3204 122.709 84.4936 122.274 84.4936Z" fill="#CCCCCC"/>
<path d="M65.9111 36.1465C69.1093 36.1465 71.7019 33.5446 71.7019 30.3349C71.7019 27.1252 69.1093 24.5232 65.9111 24.5232C62.7129 24.5232 60.1202 27.1252 60.1202 30.3349C60.1202 33.5446 62.7129 36.1465 65.9111 36.1465Z" fill="#6C63FF"/>
<path d="M65.3372 32.5518C65.2069 32.5521 65.0801 32.5098 64.9759 32.4313L64.9694 32.4265L63.6085 31.3817C63.4814 31.2837 63.3982 31.139 63.3773 30.9795C63.3564 30.82 63.3994 30.6587 63.4969 30.531C63.5944 30.4033 63.7385 30.3197 63.8974 30.2986C64.0563 30.2775 64.2171 30.3205 64.3444 30.4183L65.2259 31.0967L67.309 28.3694C67.3573 28.3061 67.4175 28.2531 67.4862 28.2132C67.555 28.1733 67.6309 28.1475 67.7096 28.137C67.7883 28.1266 67.8683 28.1318 67.945 28.1524C68.0217 28.173 68.0936 28.2085 68.1566 28.257L68.1567 28.2572L68.1438 28.2752L68.1571 28.2572C68.2842 28.3552 68.3674 28.4998 68.3883 28.6593C68.4093 28.8188 68.3663 28.9802 68.2689 29.1079L65.8188 32.3144C65.7621 32.3883 65.6892 32.4481 65.6058 32.4891C65.5224 32.5302 65.4307 32.5514 65.3378 32.5511L65.3372 32.5518Z" fill="white"/>
<path d="M66.5073 61.0164C69.7056 61.0164 72.2982 58.4144 72.2982 55.2047C72.2982 51.995 69.7056 49.3931 66.5073 49.3931C63.3091 49.3931 60.7165 51.995 60.7165 55.2047C60.7165 58.4144 63.3091 61.0164 66.5073 61.0164Z" fill="#CCCCCC"/>
<path d="M65.9111 85.8862C69.1093 85.8862 71.7019 83.2843 71.7019 80.0746C71.7019 76.8649 69.1093 74.2629 65.9111 74.2629C62.7129 74.2629 60.1202 76.8649 60.1202 80.0746C60.1202 83.2843 62.7129 85.8862 65.9111 85.8862Z" fill="#CCCCCC"/>
<path d="M140.019 12.5479H128.115C127.246 12.5479 126.412 12.2014 125.798 11.5847C125.183 10.968 124.838 10.1315 124.838 9.25934V0.435261C124.838 0.396628 124.849 0.358774 124.869 0.326046C124.89 0.293319 124.919 0.267039 124.954 0.250221C124.988 0.233402 125.027 0.226726 125.065 0.230958C125.104 0.235191 125.14 0.25016 125.17 0.274149L140.147 12.1813C140.18 12.2078 140.204 12.244 140.216 12.285C140.228 12.326 140.227 12.3696 140.213 12.4099C140.199 12.4502 140.173 12.4852 140.138 12.5099C140.103 12.5346 140.062 12.5479 140.019 12.5479Z" fill="#E6E6E6"/>
<path d="M59.434 127.396L13.9238 137.024C12.6087 137.3 11.2378 137.042 10.1121 136.306C8.98636 135.569 8.19766 134.415 7.91903 133.095L0.109561 95.9125C-0.166112 94.5926 0.0911621 93.2168 0.82494 92.0871C1.55872 90.9573 2.70908 90.1657 4.02363 89.8861L49.5338 80.2589C50.849 79.9823 52.2198 80.2405 53.3455 80.9769C54.4713 81.7133 55.26 82.8678 55.5386 84.1871L63.3481 121.37C63.6237 122.69 63.3665 124.066 62.6327 125.195C61.8989 126.325 60.7485 127.117 59.434 127.396Z" fill="white"/>
<path d="M59.434 127.396L13.9238 137.024C12.6087 137.3 11.2378 137.042 10.1121 136.306C8.98636 135.569 8.19766 134.415 7.91903 133.095L0.109561 95.9125C-0.166112 94.5926 0.0911621 93.2168 0.82494 92.0871C1.55872 90.9573 2.70908 90.1657 4.02363 89.8861L49.5338 80.2589C50.849 79.9823 52.2198 80.2405 53.3455 80.9769C54.4713 81.7133 55.26 82.8678 55.5386 84.1871L63.3481 121.37C63.6237 122.69 63.3665 124.066 62.6327 125.195C61.8989 126.325 60.7485 127.117 59.434 127.396ZM4.14662 90.4717C2.98672 90.7184 1.9717 91.4168 1.32425 92.4137C0.676801 93.4106 0.449788 94.6245 0.69302 95.7891L8.5025 132.972C8.74836 134.136 9.44426 135.155 10.4376 135.805C11.4308 136.454 12.6404 136.682 13.8009 136.438L59.311 126.811C60.4709 126.564 61.4859 125.866 62.1334 124.869C62.7808 123.872 63.0078 122.658 62.7646 121.493L54.9551 84.3105C54.7093 83.1464 54.0134 82.1278 53.0201 81.478C52.0268 80.8282 50.8172 80.6004 49.6568 80.8445L4.14662 90.4717Z" fill="#3F3D56"/>
<path d="M46.7061 92.5192L23.7377 97.3779C23.5368 97.4247 23.3255 97.3932 23.1468 97.2897C22.9681 97.1863 22.8352 97.0185 22.7749 96.8205C22.7474 96.7172 22.7411 96.6093 22.7565 96.5035C22.7718 96.3977 22.8085 96.2962 22.8643 96.2051C22.92 96.114 22.9937 96.0352 23.0808 95.9736C23.1679 95.912 23.2666 95.8689 23.3708 95.8468L46.7512 90.9009C47.6641 91.4173 47.3756 92.3776 46.7058 92.5193L46.7061 92.5192Z" fill="#CCCCCC"/>
<path d="M47.5553 96.5625L24.5869 101.421C24.3859 101.468 24.1747 101.436 23.996 101.333C23.8173 101.23 23.6844 101.062 23.6241 100.864C23.5966 100.76 23.5903 100.653 23.6057 100.547C23.621 100.441 23.6577 100.339 23.7135 100.248C23.7692 100.157 23.8429 100.078 23.93 100.017C24.0171 99.9553 24.1157 99.9121 24.22 99.8901L47.6004 94.9442C48.5133 95.4605 48.2248 96.4209 47.555 96.5626L47.5553 96.5625Z" fill="#CCCCCC"/>
<path d="M20.1052 104.774L13.0955 106.256C12.8666 106.305 12.628 106.26 12.432 106.132C12.2361 106.003 12.0988 105.802 12.0503 105.573L10.3067 97.271C10.2587 97.0413 10.3035 96.8018 10.4312 96.6051C10.5589 96.4085 10.7592 96.2707 10.988 96.2221L17.9977 94.7393C18.2266 94.6911 18.4652 94.7361 18.6611 94.8643C18.8571 94.9924 18.9944 95.1934 19.0429 95.423L20.7865 103.725C20.8345 103.954 20.7898 104.194 20.662 104.391C20.5343 104.587 20.3341 104.725 20.1052 104.774V104.774Z" fill="#CCCCCC"/>
<path d="M49.2272 104.855L14.1733 112.271C13.9723 112.317 13.7611 112.286 13.5824 112.182C13.4036 112.079 13.2707 111.911 13.2105 111.713C13.183 111.61 13.1767 111.502 13.192 111.396C13.2074 111.29 13.2441 111.189 13.2998 111.098C13.3556 111.007 13.4292 110.928 13.5163 110.866C13.6034 110.805 13.7021 110.761 13.8064 110.739L49.2726 103.237C50.1855 103.753 49.897 104.714 49.2272 104.855Z" fill="#CCCCCC"/>
<path d="M50.0767 108.9L15.0227 116.315C14.8218 116.362 14.6105 116.33 14.4318 116.227C14.2531 116.123 14.1202 115.956 14.06 115.758C14.0324 115.654 14.0261 115.546 14.0415 115.441C14.0568 115.335 14.0935 115.233 14.1493 115.142C14.205 115.051 14.2787 114.972 14.3658 114.911C14.4529 114.849 14.5516 114.806 14.6558 114.784L50.1221 107.281C51.035 107.798 50.7464 108.758 50.0767 108.9Z" fill="#CCCCCC"/>
<path d="M50.9256 112.942L15.8716 120.357C15.6707 120.404 15.4594 120.372 15.2807 120.269C15.102 120.165 14.9691 119.997 14.9089 119.799C14.8813 119.696 14.875 119.588 14.8904 119.482C14.9057 119.377 14.9424 119.275 14.9982 119.184C15.0539 119.093 15.1276 119.014 15.2147 118.953C15.3018 118.891 15.4005 118.848 15.5047 118.826L50.971 111.323C51.8839 111.839 51.5954 112.8 50.9256 112.942Z" fill="#CCCCCC"/>
<path d="M51.775 116.986L16.7211 124.401C16.5201 124.448 16.3088 124.416 16.1301 124.313C15.9514 124.209 15.8185 124.042 15.7583 123.844C15.7307 123.74 15.7244 123.632 15.7398 123.527C15.7551 123.421 15.7918 123.319 15.8476 123.228C15.9033 123.137 15.977 123.058 16.0641 122.997C16.1512 122.935 16.2499 122.892 16.3541 122.87L51.8204 115.367C52.7333 115.884 52.4448 116.844 51.775 116.986Z" fill="#CCCCCC"/>
<path d="M52.624 121.028L17.57 128.443C17.369 128.49 17.1578 128.458 16.9791 128.355C16.8004 128.251 16.6675 128.084 16.6072 127.886C16.5797 127.782 16.5734 127.674 16.5888 127.569C16.6041 127.463 16.6408 127.361 16.6965 127.27C16.7523 127.179 16.826 127.1 16.9131 127.039C17.0002 126.977 17.0988 126.934 17.2031 126.912L52.6693 119.409C53.5823 119.926 53.2937 120.886 52.624 121.028Z" fill="#CCCCCC"/>
<path d="M58.8118 102.516C58.7321 102.661 58.664 102.813 58.608 102.968L44.2575 106.542L41.761 103.95L37.3708 107.22L41.346 112.24C41.6672 112.645 42.1107 112.935 42.6101 113.066C43.1095 113.197 43.6377 113.162 44.1155 112.966L59.6872 106.58C60.1991 106.958 60.8134 107.171 61.4487 107.19C62.084 107.209 62.7099 107.034 63.2434 106.687C63.7769 106.341 64.1926 105.839 64.4352 105.25C64.6778 104.66 64.7358 104.011 64.6015 103.387C64.4672 102.764 64.1469 102.196 63.6834 101.76C63.2198 101.324 62.6348 101.039 62.0063 100.945C61.3778 100.85 60.7355 100.95 60.1648 101.231C59.5942 101.511 59.1222 101.96 58.8118 102.516L58.8118 102.516Z" fill="#A0616A"/>
<path d="M9.82802 134.32C10.2754 134.182 10.6871 133.946 11.034 133.631C11.3809 133.315 11.6547 132.927 11.836 132.494C12.0173 132.061 12.1017 131.593 12.0833 131.123C12.065 130.654 11.9442 130.194 11.7296 129.776L21.6054 102.228L14.747 101.009L7.19607 128.471C6.52083 128.879 6.01828 129.522 5.78366 130.277C5.54903 131.032 5.59863 131.848 5.92305 132.569C6.24747 133.29 6.82417 133.866 7.54389 134.189C8.2636 134.512 9.07631 134.559 9.82802 134.32Z" fill="#A0616A"/>
<path d="M20.3511 107.118L13.5796 104.51C13.3869 104.436 13.2124 104.321 13.068 104.173C12.9237 104.025 12.8128 103.848 12.7429 103.653C12.673 103.458 12.6458 103.25 12.6631 103.044C12.6804 102.837 12.7419 102.637 12.8432 102.457L16.3956 96.1357C16.7796 95.1486 17.5379 94.3547 18.5043 93.9279C19.4706 93.501 20.5662 93.4762 21.5508 93.8588C22.5354 94.2413 23.3286 95.0001 23.7567 95.9687C24.1847 96.9373 24.2126 98.0367 23.8342 99.0259L22.2673 106.087C22.2224 106.289 22.1346 106.479 22.0099 106.644C21.8852 106.809 21.7265 106.945 21.5447 107.043C21.3628 107.141 21.1621 107.198 20.9561 107.211C20.7501 107.224 20.5438 107.193 20.3511 107.118V107.118Z" fill="#6C63FF"/>
<path d="M35.6354 186.04L39.2906 186.04L41.0294 171.891L35.6348 171.891L35.6354 186.04Z" fill="#A0616A"/>
<path d="M34.703 184.843L41.9013 184.842H41.9016C42.504 184.842 43.1005 184.961 43.6571 185.193C44.2137 185.424 44.7194 185.763 45.1453 186.191C45.5713 186.618 45.9092 187.126 46.1398 187.684C46.3703 188.243 46.4889 188.841 46.4889 189.446V189.596L34.7032 189.596L34.703 184.843Z" fill="#2F2E41"/>
<path d="M15.0636 186.04L18.7189 186.04L20.4576 171.891L15.063 171.891L15.0636 186.04Z" fill="#A0616A"/>
<path d="M14.1312 184.843L21.3295 184.842H21.3298C21.9322 184.842 22.5287 184.961 23.0853 185.193C23.6418 185.424 24.1476 185.763 24.5735 186.191C24.9995 186.618 25.3374 187.126 25.5679 187.684C25.7985 188.243 25.9171 188.841 25.9171 189.446V189.596L14.1314 189.596L14.1312 184.843Z" fill="#2F2E41"/>
<path d="M18.8954 180.345H14.2699C14.0883 180.345 13.9087 180.308 13.7418 180.237C13.5749 180.165 13.4242 180.06 13.299 179.928C13.1737 179.796 13.0764 179.64 13.0129 179.469C12.9494 179.299 12.9212 179.117 12.9298 178.935L15.1269 131.56L15.2653 131.556L37.6019 130.972L41.9728 178.374C41.9896 178.552 41.971 178.731 41.9182 178.901C41.8653 179.072 41.7792 179.23 41.6649 179.367C41.5506 179.503 41.4103 179.616 41.2522 179.698C41.0942 179.78 40.9215 179.829 40.7442 179.843L35.5487 180.26C35.2223 180.286 34.8977 180.192 34.6359 179.994C34.3741 179.797 34.1933 179.51 34.1274 179.189L27.4817 145.444C27.4636 145.342 27.4094 145.249 27.3291 145.183C27.2487 145.118 27.1475 145.083 27.0438 145.086H27.0419C26.9379 145.083 26.8364 145.119 26.7562 145.185C26.6759 145.252 26.6222 145.345 26.6048 145.448L20.2118 179.259C20.1513 179.565 19.9871 179.84 19.7471 180.038C19.5071 180.236 19.2062 180.345 18.8954 180.345Z" fill="#2F2E41"/>
<path d="M27.3685 89.3075C31.4127 89.3075 34.6912 86.0173 34.6912 81.9586C34.6912 77.8998 31.4127 74.6096 27.3685 74.6096C23.3243 74.6096 20.0459 77.8998 20.0459 81.9586C20.0459 86.0173 23.3243 89.3075 27.3685 89.3075Z" fill="#A0616A"/>
<path d="M24.9132 137.112C21.423 137.112 17.8382 136.191 14.8664 133.469C14.7082 133.325 14.5861 133.146 14.51 132.946C14.4339 132.745 14.4059 132.53 14.4283 132.317C14.7463 129.449 16.2893 114.639 15.4204 104.747C15.2508 102.899 15.5115 101.037 16.1818 99.3072C16.8521 97.5778 17.9138 96.0284 19.283 94.7813C20.6282 93.5371 22.2431 92.6236 24.0003 92.1129C25.7576 91.6023 27.609 91.5085 29.4085 91.8389H29.4086C29.4998 91.8552 29.5909 91.8725 29.6822 91.89C35.5447 93.0287 39.6181 98.4739 39.1572 104.556C38.4846 113.431 37.8817 125.435 38.8284 132.224C38.8676 132.501 38.8193 132.784 38.6902 133.033C38.5611 133.282 38.3576 133.484 38.1084 133.611C35.9544 134.703 30.5576 137.112 24.9132 137.112Z" fill="#6C63FF"/>
<path d="M34.4684 107.647C34.2966 107.533 34.1514 107.382 34.0429 107.206C33.9344 107.03 33.865 106.832 33.8395 106.627L32.9473 99.4485C32.6641 98.4276 32.7958 97.3358 33.3135 96.4123C33.8312 95.4887 34.6927 94.8089 35.7091 94.5219C36.7254 94.2348 37.8137 94.3639 38.7354 94.8809C39.6571 95.3979 40.3368 96.2605 40.6257 97.2797L43.5643 103.911C43.6481 104.1 43.6904 104.305 43.6881 104.512C43.6858 104.719 43.6391 104.923 43.5511 105.111C43.4631 105.298 43.3359 105.464 43.1782 105.598C43.0205 105.731 42.8359 105.829 42.6371 105.885L35.6495 107.836C35.4506 107.892 35.2422 107.904 35.0384 107.871C34.8345 107.839 34.6401 107.762 34.4684 107.647Z" fill="#6C63FF"/>
<path d="M24.8122 89.2037C24.1191 89.2167 23.4304 89.0916 22.7857 88.8358C22.502 88.7261 22.2076 88.6359 21.9245 88.5261C19.4241 87.5566 17.777 84.8841 17.718 82.1946C17.659 79.5051 19.0468 76.8947 21.1076 75.1744C23.1684 73.4541 25.8376 72.5709 28.5104 72.3666C31.3895 72.1466 34.6313 72.8793 36.2401 75.2856C36.6684 75.9261 36.9678 76.7032 36.7141 77.4766C36.6381 77.71 36.5024 77.9192 36.3205 78.0834C35.602 78.7249 34.8857 78.2425 34.1533 78.1999C33.1466 78.1414 32.2425 78.9591 31.9175 79.9171C31.5925 80.8751 31.7356 81.9298 31.998 82.9069C32.1979 83.4949 32.3239 84.1056 32.3731 84.7249C32.3943 85.0355 32.3361 85.3463 32.204 85.6279C32.072 85.9096 31.8704 86.1527 31.6185 86.3343C30.9895 86.7159 30.1634 86.495 29.5339 86.114C28.9045 85.733 28.3606 85.2033 27.6807 84.9229C27.0008 84.6426 26.0874 84.7048 25.6917 85.3264C25.5659 85.5526 25.4808 85.7993 25.4402 86.0551C25.0855 87.6772 25.167 87.5816 24.8122 89.2037V89.2037Z" fill="#2F2E41"/>
<path d="M57.1442 190H0.497239C0.418167 190 0.342333 189.968 0.28642 189.912C0.230508 189.856 0.199097 189.78 0.199097 189.701C0.199097 189.621 0.230508 189.545 0.28642 189.489C0.342333 189.433 0.418167 189.402 0.497239 189.402H57.1442C57.2233 189.402 57.2991 189.433 57.355 189.489C57.411 189.545 57.4424 189.621 57.4424 189.701C57.4424 189.78 57.411 189.856 57.355 189.912C57.2991 189.968 57.2233 190 57.1442 190Z" fill="#CCCCCC"/>
<path d="M202.144 128.251L161.579 151.086C160.407 151.745 159.022 151.91 157.728 151.544C156.435 151.179 155.338 150.314 154.679 149.139L136.156 115.996C135.5 114.819 135.336 113.429 135.7 112.131C136.063 110.833 136.926 109.733 138.097 109.072L178.661 86.2364C179.834 85.578 181.219 85.4133 182.513 85.7785C183.806 86.1436 184.903 87.0089 185.561 88.1843L204.085 121.327C204.741 122.503 204.905 123.894 204.541 125.192C204.177 126.49 203.315 127.59 202.144 128.251Z" fill="white"/>
<path d="M202.144 128.251L161.579 151.086C160.407 151.745 159.022 151.91 157.728 151.544C156.435 151.179 155.338 150.314 154.679 149.139L136.156 115.996C135.5 114.819 135.336 113.429 135.7 112.131C136.063 110.833 136.926 109.733 138.097 109.072L178.661 86.2364C179.834 85.578 181.219 85.4133 182.513 85.7785C183.806 86.1436 184.903 87.0089 185.561 88.1843L204.085 121.327C204.741 122.503 204.905 123.894 204.541 125.192C204.177 126.49 203.315 127.59 202.144 128.251ZM138.388 109.593C137.355 110.177 136.594 111.148 136.273 112.293C135.952 113.439 136.097 114.665 136.676 115.704L155.2 148.846C155.781 149.883 156.748 150.646 157.89 150.969C159.031 151.291 160.253 151.145 161.288 150.565L201.852 127.729C202.886 127.146 203.646 126.175 203.967 125.03C204.289 123.884 204.144 122.658 203.565 121.619L185.041 88.4771C184.46 87.4399 183.493 86.6765 182.351 86.3543C181.21 86.0321 179.988 86.1774 178.953 86.7583L138.388 109.593Z" fill="#3F3D56"/>
<path d="M179.613 98.7845L159.141 110.309C158.963 110.414 158.752 110.447 158.551 110.402C158.349 110.357 158.173 110.237 158.056 110.066C157.999 109.976 157.961 109.874 157.944 109.769C157.927 109.663 157.932 109.555 157.958 109.452C157.984 109.348 158.031 109.251 158.096 109.166C158.161 109.081 158.242 109.01 158.335 108.958L179.174 97.2266C180.199 97.4456 180.21 98.4486 179.613 98.7846L179.613 98.7845Z" fill="#CCCCCC"/>
<path d="M181.627 102.388L161.155 113.913C160.977 114.018 160.766 114.051 160.565 114.006C160.364 113.961 160.187 113.841 160.07 113.67C160.013 113.579 159.975 113.478 159.958 113.373C159.941 113.267 159.946 113.159 159.972 113.056C159.998 112.952 160.045 112.855 160.11 112.77C160.175 112.685 160.256 112.614 160.349 112.562L181.189 100.831C182.214 101.049 182.224 102.052 181.627 102.389L181.627 102.388Z" fill="#CCCCCC"/>
<path d="M157.876 118.456L151.628 121.973C151.424 122.088 151.183 122.117 150.958 122.053C150.733 121.99 150.542 121.839 150.427 121.634L146.292 114.235C146.177 114.03 146.149 113.788 146.212 113.562C146.275 113.336 146.426 113.145 146.629 113.029L152.877 109.512C153.082 109.398 153.323 109.369 153.548 109.433C153.773 109.496 153.964 109.647 154.078 109.851L158.214 117.251C158.328 117.456 158.357 117.698 158.294 117.924C158.23 118.15 158.08 118.341 157.876 118.456L157.876 118.456Z" fill="#CCCCCC"/>
<path d="M185.692 109.801L154.448 127.389C154.27 127.494 154.059 127.528 153.857 127.483C153.656 127.437 153.479 127.317 153.363 127.146C153.306 127.056 153.268 126.955 153.251 126.849C153.234 126.744 153.239 126.636 153.265 126.532C153.291 126.428 153.338 126.331 153.402 126.246C153.467 126.161 153.549 126.091 153.642 126.038L185.254 108.243C186.278 108.462 186.289 109.465 185.692 109.801Z" fill="#CCCCCC"/>
<path d="M187.707 113.406L156.462 130.994C156.285 131.099 156.074 131.133 155.872 131.087C155.671 131.042 155.494 130.922 155.378 130.751C155.321 130.661 155.282 130.56 155.266 130.454C155.249 130.349 155.254 130.241 155.28 130.137C155.306 130.033 155.353 129.936 155.417 129.851C155.482 129.766 155.563 129.696 155.656 129.643L187.268 111.848C188.293 112.067 188.304 113.07 187.707 113.406V113.406Z" fill="#CCCCCC"/>
<path d="M189.721 117.008L158.476 134.597C158.298 134.702 158.087 134.735 157.886 134.69C157.684 134.645 157.508 134.525 157.391 134.354C157.334 134.263 157.296 134.162 157.279 134.057C157.262 133.951 157.267 133.843 157.293 133.74C157.319 133.636 157.366 133.539 157.431 133.454C157.496 133.369 157.577 133.298 157.67 133.246L189.282 115.45C190.307 115.669 190.317 116.672 189.721 117.008Z" fill="#CCCCCC"/>
<path d="M191.735 120.613L160.491 138.202C160.313 138.307 160.102 138.34 159.9 138.295C159.699 138.25 159.522 138.129 159.406 137.958C159.349 137.868 159.311 137.767 159.294 137.662C159.277 137.556 159.282 137.448 159.308 137.344C159.334 137.241 159.381 137.143 159.446 137.059C159.51 136.974 159.592 136.903 159.685 136.851L191.297 119.055C192.322 119.274 192.332 120.277 191.735 120.613H191.735Z" fill="#CCCCCC"/>
<path d="M193.749 124.216L162.504 141.805C162.326 141.91 162.115 141.943 161.914 141.898C161.713 141.852 161.536 141.732 161.419 141.561C161.362 141.471 161.324 141.37 161.307 141.264C161.291 141.159 161.295 141.051 161.321 140.947C161.348 140.844 161.394 140.746 161.459 140.661C161.524 140.576 161.605 140.506 161.698 140.453L193.31 122.658C194.335 122.877 194.346 123.88 193.749 124.216V124.216Z" fill="#CCCCCC"/>
<path d="M188.298 137.717C188.468 137.341 188.554 136.931 188.549 136.518C188.545 136.104 188.45 135.697 188.271 135.324C188.093 134.951 187.835 134.622 187.516 134.36C187.197 134.099 186.825 133.91 186.426 133.808L185.576 123.792L181.489 127.027L182.923 136.043C182.797 136.727 182.925 137.435 183.284 138.031C183.643 138.626 184.207 139.07 184.869 139.276C185.532 139.482 186.247 139.438 186.879 139.151C187.511 138.863 188.016 138.353 188.298 137.717Z" fill="#FFB8B8"/>
<path d="M185.653 132.759L182.259 133.165C182.087 133.186 181.912 133.171 181.746 133.12C181.58 133.07 181.425 132.986 181.293 132.873C181.161 132.76 181.053 132.621 180.977 132.464C180.901 132.308 180.857 132.137 180.85 131.963L180.355 120.473L173.922 102.835C173.664 102.288 173.546 101.685 173.58 101.08C173.613 100.476 173.796 99.8893 174.113 99.374C174.271 99.1251 174.451 98.8913 174.652 98.676C175.048 98.2481 175.541 97.9226 176.089 97.7272C176.638 97.5318 177.225 97.4723 177.801 97.5538C178.395 97.6331 178.961 97.8533 179.452 98.1962C179.944 98.5391 180.347 98.9948 180.628 99.5255L184.824 108.348C186.579 112.039 187.407 116.104 187.237 120.189L186.764 131.555C186.752 131.853 186.635 132.136 186.435 132.356C186.235 132.576 185.964 132.718 185.67 132.757L185.653 132.759Z" fill="#6C63FF"/>
<path d="M197.706 182.419L194.559 183.805L187.735 172.285L192.379 170.239L197.706 182.419Z" fill="#FFB8B8"/>
<path d="M199.847 185.127L189.701 189.596L189.645 189.467C189.417 188.947 189.294 188.386 189.282 187.818C189.27 187.25 189.37 186.685 189.576 186.155C189.782 185.626 190.089 185.142 190.481 184.732C190.873 184.322 191.342 183.993 191.861 183.764L191.861 183.764L198.057 181.035L199.847 185.127Z" fill="#2F2E41"/>
<path d="M155.462 186.253H152.026L150.391 172.951L155.463 172.951L155.462 186.253Z" fill="#FFB8B8"/>
<path d="M156.339 189.596L145.258 189.596V189.455C145.258 188.887 145.37 188.324 145.587 187.799C145.803 187.274 146.121 186.796 146.522 186.395C146.922 185.993 147.397 185.674 147.921 185.456C148.444 185.239 149.005 185.127 149.571 185.127H149.571L156.339 185.127L156.339 189.596Z" fill="#2F2E41"/>
<path d="M188.918 181.706L169.776 138.833C169.741 138.753 169.683 138.686 169.608 138.64C169.534 138.595 169.447 138.573 169.36 138.58C169.273 138.586 169.19 138.619 169.123 138.675C169.055 138.73 169.007 138.805 168.984 138.89L157.32 180.299C157.243 180.589 157.066 180.842 156.82 181.012C156.573 181.182 156.275 181.258 155.978 181.227L149.608 180.587C149.279 180.553 148.978 180.391 148.766 180.137C148.555 179.883 148.45 179.556 148.475 179.225C150.501 153.935 153.695 130.066 163.264 114.44L163.315 114.357L177.787 117.205L197.109 178.955C197.205 179.273 197.172 179.616 197.019 179.91C196.866 180.204 196.604 180.427 196.289 180.53L190.463 182.409C190.164 182.507 189.84 182.489 189.554 182.358C189.269 182.228 189.042 181.995 188.918 181.706Z" fill="#2F2E41"/>
<path d="M170.31 92.4788C174.112 92.4788 177.194 89.3856 177.194 85.5698C177.194 81.7541 174.112 78.6608 170.31 78.6608C166.508 78.6608 163.426 81.7541 163.426 85.5698C163.426 89.3856 166.508 92.4788 170.31 92.4788Z" fill="#FFB8B8"/>
<path d="M162.374 115.636L162.286 115.618L162.266 115.531C161.338 111.6 161.316 107.311 162.2 102.783C162.648 100.468 163.896 98.3865 165.723 96.9046C167.551 95.4227 169.841 94.6354 172.19 94.6816C174.739 94.7335 177.171 95.7609 178.99 97.5536C180.809 99.3463 181.877 101.769 181.974 104.325C182.27 112.114 179.098 118.867 179.066 118.935L179.019 119.033L162.374 115.636Z" fill="#6C63FF"/>
<path d="M143.919 128.78C144.327 128.72 144.716 128.57 145.06 128.342C145.404 128.115 145.694 127.814 145.909 127.461C146.125 127.109 146.261 126.713 146.308 126.302C146.354 125.892 146.311 125.475 146.18 125.083L154.109 118.942L149.186 117.246L142.411 123.339C141.769 123.603 141.246 124.094 140.941 124.72C140.636 125.345 140.571 126.061 140.757 126.732C140.943 127.403 141.367 127.982 141.95 128.359C142.533 128.737 143.234 128.886 143.919 128.78V128.78Z" fill="#FFB8B8"/>
<path d="M148.25 124.148C147.992 124.302 147.688 124.357 147.392 124.305C147.097 124.253 146.83 124.096 146.64 123.863L144.462 121.22C144.351 121.086 144.269 120.93 144.221 120.763C144.173 120.595 144.16 120.42 144.183 120.247C144.206 120.074 144.264 119.908 144.354 119.759C144.444 119.61 144.563 119.481 144.705 119.38L154.062 112.739L165.351 97.7593C165.67 97.2454 166.112 96.8195 166.636 96.5203C167.16 96.2211 167.751 96.0581 168.354 96.0461C168.648 96.0443 168.941 96.07 169.23 96.1228C169.803 96.225 170.343 96.4647 170.804 96.8215C171.264 97.1783 171.632 97.6416 171.876 98.1719C172.131 98.7155 172.253 99.3124 172.232 99.9129C172.211 100.513 172.048 101.1 171.756 101.625L163.396 115.211L163.378 115.241L148.25 124.148Z" fill="#6C63FF"/>
<path d="M171.541 85.1411C171.034 84.3035 169.914 84.0668 168.942 84.1624C167.97 84.2579 167.024 84.6008 166.048 84.5932C163.335 84.5721 161.242 81.2547 162.382 78.785C163.317 76.7596 165.653 75.8702 167.766 75.1721C172.195 73.7086 177.284 72.3024 181.304 74.6754C182.585 75.454 183.635 76.5617 184.347 77.8841C185.059 79.2065 185.406 80.6956 185.352 82.1976C185.262 84.0652 184.549 85.9836 185.152 87.7528C185.847 89.7939 188.052 90.889 190.136 91.4188C193.788 92.3474 197.639 92.1978 201.314 93.0307C204.99 93.8636 208.756 96.0751 209.746 99.7234C210.397 102.12 209.718 104.699 208.594 106.912C207.446 109.169 205.852 111.168 203.908 112.785C201.964 114.403 199.712 115.605 197.289 116.318C194.866 117.031 192.324 117.24 189.818 116.933C187.311 116.626 184.894 115.808 182.713 114.53C178.27 111.927 175.063 107.526 173.15 102.732C172.066 99.9361 171.302 97.025 170.875 94.0553C170.446 91.2754 170.81 88.4661 171.586 85.763C171.622 85.6621 171.637 85.5545 171.63 85.4473C171.622 85.3401 171.592 85.2357 171.541 85.1411Z" fill="#2F2E41"/>
<path d="M196.377 190H139.73C139.651 190 139.575 189.968 139.519 189.912C139.463 189.856 139.431 189.78 139.431 189.701C139.431 189.621 139.463 189.545 139.519 189.489C139.575 189.433 139.651 189.402 139.73 189.402H196.377C196.456 189.402 196.531 189.433 196.587 189.489C196.643 189.545 196.675 189.621 196.675 189.701C196.675 189.78 196.643 189.856 196.587 189.912C196.531 189.968 196.456 190 196.377 190Z" fill="#CCCCCC"/>
</g>
<defs>
<clipPath id="clip0_1_12">
<rect width="210" height="190" fill="white"/>
</clipPath>
</defs>
</svg>
