<svg width="195" height="117" viewBox="0 0 195 117" fill="none" xmlns="http://www.w3.org/2000/svg">
<path d="M10.174 116.739C10.1609 116.681 8.8993 110.94 11.4759 106.172C14.0524 101.403 19.5524 99.3004 19.6076 99.2796L19.859 99.1855L19.9184 99.447C19.9314 99.5043 21.193 105.246 18.6165 110.014C16.04 114.782 10.54 116.885 10.4847 116.906L10.2332 117L10.174 116.739ZM19.5143 99.8235C18.4126 100.296 14.0646 102.366 11.8884 106.393C9.71209 110.421 10.3687 115.184 10.5781 116.362C11.6793 115.89 16.0256 113.824 18.2039 109.792C20.3801 105.765 19.7238 101.002 19.5143 99.8235V99.8235Z" fill="#F1F1F1"/>
<path d="M16.6475 108.341C12.0173 111.121 10.234 116.643 10.234 116.643C10.234 116.643 15.9579 117.658 20.5881 114.878C25.2183 112.098 27.0016 106.576 27.0016 106.576C27.0016 106.576 21.2777 105.561 16.6475 108.341Z" fill="#F1F1F1"/>
<path d="M86.7665 63.7763C86.8371 63.4126 86.8269 63.0379 86.7367 62.6785C86.6465 62.3192 86.4784 61.9839 86.2442 61.6964C86.0101 61.4089 85.7157 61.1761 85.3817 61.0144C85.0477 60.8527 84.6822 60.7661 84.311 60.7606L82.1668 55.3795L78.5721 55.8823L81.7071 63.439C81.7392 64.0619 81.9992 64.6514 82.4378 65.0959C82.8763 65.5403 83.463 65.8087 84.0867 65.8503C84.7103 65.8919 85.3276 65.7037 85.8215 65.3215C86.3154 64.9392 86.6516 64.3895 86.7665 63.7763Z" fill="#9F616A"/>
<path d="M80.1441 61.8855L79.0303 59.235L72.0895 46.0504L72.4669 21.654L72.5393 21.6444C76.9806 21.0588 79.9855 41.4802 80.1113 42.3498L84.4967 57.3171L85.5406 60.6161L80.1441 61.8855Z" fill="#6C63FF"/>
<path d="M69.4792 113.329L72.8539 113.329L74.4592 100.339L69.4785 100.34L69.4792 113.329Z" fill="#9F616A"/>
<path d="M68.6184 112.23L75.2643 112.229H75.2646C76.3879 112.229 77.4651 112.675 78.2593 113.467C79.0536 114.26 79.4998 115.335 79.4999 116.456V116.593L68.6186 116.594L68.6184 112.23Z" fill="#2F2E41"/>
<path d="M38.4503 108.198L41.2192 110.124L49.9785 100.383L45.892 97.5408L38.4503 108.198Z" fill="#9F616A"/>
<path d="M38.374 106.805L43.8267 110.597L43.8269 110.597C44.7484 111.238 45.377 112.218 45.5746 113.321C45.7721 114.425 45.5223 115.561 44.8802 116.481L44.8015 116.594L35.8739 110.386L38.374 106.805Z" fill="#2F2E41"/>
<path d="M67.6245 110.276L67.4786 85.9081L65.3553 70.5859L61.3965 84.0604L61.3888 84.0714L47.0428 104.856L41.4606 102.033L41.4912 101.961C41.8323 101.151 49.8708 82.1332 52.0315 82.1332C52.2202 82.1464 52.4093 82.1136 52.5824 82.0376C52.7556 81.9617 52.9077 81.8449 53.0256 81.6973C53.6597 80.8522 53.1433 79.059 53.138 79.041C52.5195 76.4814 54.0747 75.6098 54.3844 75.4642L55.2175 58.3016L55.3039 58.3075L77.8896 59.8885L76.9421 81.3464L74.9038 109.461L74.8338 109.468L67.6245 110.276Z" fill="#2F2E41"/>
<path d="M78.2347 63.6915L78.137 63.6836L53.8467 61.7296L53.9066 53.7092L55.0955 32.7674L55.1023 32.7529L59.9439 22.2635L63.376 20.7126L68.3834 20.4496L68.3956 20.4526L72.9655 21.5825L77.7193 55.6377L78.2347 63.6915Z" fill="#6C63FF"/>
<path d="M69.168 17.7613C72.2672 16.0706 73.4063 12.1928 71.7121 9.09998C70.0179 6.00714 66.132 4.87048 63.0328 6.56118C59.9336 8.25188 58.7946 12.1297 60.4888 15.2225C62.1829 18.3154 66.0688 19.452 69.168 17.7613Z" fill="#9F616A"/>
<path d="M59.6687 13.7633V11.2767C59.6687 11.2767 57.6592 8.91487 59.8696 8.31993C59.8696 8.31993 60.4725 2.37055 65.6972 5.14693C65.6972 5.14693 72.9313 3.95705 72.1275 8.12162C72.1275 8.12162 73.9361 7.03439 73.3332 9.81077L72.1673 14.283C72.1673 14.283 72.7304 11.3288 70.9218 10.9321L69.9171 10.3372C69.9171 10.3372 67.1038 13.1136 62.8839 9.74227C62.8839 9.74227 61.0753 9.31151 61.2763 11.0963C61.4772 12.8811 59.6687 13.7633 59.6687 13.7633Z" fill="#2F2E41"/>
<path d="M65.4346 57.702C65.4386 57.3316 65.3612 56.9648 65.2078 56.6274C65.0545 56.29 64.8288 55.9903 64.5468 55.7494C64.2648 55.5085 63.9333 55.3322 63.5756 55.2329C63.2179 55.1337 62.8428 55.1139 62.4766 55.175L59.3996 50.2653L55.9537 51.4036L60.3967 58.2762C60.5403 58.8833 60.902 59.4167 61.4134 59.7754C61.9248 60.134 62.5502 60.293 63.1712 60.2223C63.7922 60.1515 64.3656 59.8558 64.7828 59.3913C65.1999 58.9268 65.4319 58.3258 65.4346 57.702Z" fill="#9F616A"/>
<path d="M57.4872 56.1544L51.9204 44.8755L51.9253 44.8481C51.9478 44.7232 54.1886 32.3068 55.9024 27.7428C57.6271 23.15 59.9879 22.2279 60.0875 22.1909L60.1373 22.1724L62.2541 24.1986L59.3219 43.73L62.4826 53.1497L57.4872 56.1544Z" fill="#6C63FF"/>
<path d="M195 0H184.221V10.7563H195V0Z" fill="#F1F1F1"/>
<path d="M110.646 41.8562H99.8673V52.6125H110.646V41.8562Z" fill="#F1F1F1"/>
<path d="M105.917 47.8991H191.132V4.8483H105.917V47.8991Z" fill="white"/>
<path d="M191.835 48.6006H105.214V4.14676H191.835V48.6006ZM106.62 47.1976H190.429V5.54976H106.62V47.1976Z" fill="#E5E5E5"/>
<path d="M181.709 19.9497H116.146V22.1195H181.709V19.9497Z" fill="#E5E5E5"/>
<path d="M181.709 25.2117H116.146V27.3814H181.709V25.2117Z" fill="#E5E5E5"/>
<path d="M181.709 32.9811H169.525V34.8641H181.709V32.9811Z" fill="#6C63FF"/>
<path d="M89.5091 116.991H0.234317C0.172172 116.991 0.112573 116.966 0.0686297 116.922C0.0246867 116.878 0 116.819 0 116.757C0 116.695 0.0246867 116.635 0.0686297 116.591C0.112573 116.547 0.172172 116.523 0.234317 116.523H89.5091C89.5712 116.523 89.6308 116.547 89.6748 116.591C89.7187 116.635 89.7434 116.695 89.7434 116.757C89.7434 116.819 89.7187 116.878 89.6748 116.922C89.6308 116.966 89.5712 116.991 89.5091 116.991Z" fill="#CBCBCB"/>
</svg>
